# xmcd
#
# Track frame offsets:
#	150
#	14097
#	29930
#	39663
#	52393
#	60460
#	71820
#	82244
#	95144
#	107470
#	120641
#	135527
#	146390
#	160534
#	176323
#
# Disc length: 2535 seconds
#
# Revision: 1
# Processed by: cddbd v1.5.1PL0 Copyright (c) Steve Scherf et al.
# Submitted via: EasyCDDAExtractor 7.0.3.1
#
DISCID=db09e50f
DTITLE=Steve Ivey and Jesse Campbell - 30 Bluegrass Gospel Favorites
DYEAR=2004
DGENRE=Bluegrass
TTITLE0=I Am A Man Of Constant Sorrow
TTITLE1=Just A Closer Walk With Thee
TTITLE2=Power In The Blood
TTITLE3=What A Friend We Have In Jesus
TTITLE4=Amazing Grace
TTITLE5=When We All Get To Heaven
TTITLE6=When The Roll Is Called Up Yonder
TTITLE7=Wonderful Words Of Life
TTITLE8=To God Be The Glory
TTITLE9=Jesus Loves Me
TTITLE10=When I Survey 
TTITLE11=Count Your Blessings
TTITLE12=At The Crossroads
TTITLE13=Don't Go
TTITLE14=Believe
EXTD=
EXTT0=
EXTT1=
EXTT2=
EXTT3=
EXTT4=
EXTT5=
EXTT6=
EXTT7=
EXTT8=
EXTT9=
EXTT10=
EXTT11=
EXTT12=
EXTT13=
EXTT14=
PLAYORDER=
